<?xml version="1.0" encoding="UTF-8" standalone="no"?>
<!DOCTYPE svg PUBLIC "-//W3C//DTD SVG 1.1//EN"
 "http://www.w3.org/Graphics/SVG/1.1/DTD/svg11.dtd">
<!-- Generated by graphviz version 2.40.1 (20161225.0304)
 -->
<!-- Title: %3 Pages: 1 -->
<svg width="1183pt" height="295pt"
 viewBox="0.00 0.00 1182.55 295.48" xmlns="http://www.w3.org/2000/svg" xmlns:xlink="http://www.w3.org/1999/xlink">
<g id="graph0" class="graph" transform="scale(1 1) rotate(0) translate(4 291.4802)">
<title>%3</title>
<polygon fill="#ffffff" stroke="transparent" points="-4,4 -4,-291.4802 1178.5462,-291.4802 1178.5462,4 -4,4"/>
<!-- IEnumerable&lt;T&gt; -->
<g id="node1" class="node">
<title>IEnumerable&lt;T&gt;</title>
<ellipse fill="none" stroke="#000000" cx="259.6102" cy="-269.4802" rx="91.784" ry="18"/>
<text text-anchor="middle" x="259.6102" y="-265.7802" font-family="sans-serif" font-size="14.00" fill="#000000">IEnumerable&lt;T&gt;</text>
</g>
<!-- stack -->
<g id="node2" class="node">
<title>stack</title>
<ellipse fill="none" stroke="#000000" cx="80.6102" cy="-188.6102" rx="80.7205" ry="26.7407"/>
<text text-anchor="middle" x="80.6102" y="-192.4102" font-family="sans-serif" font-size="14.00" fill="#000000">Stack&lt;T&gt;</text>
<text text-anchor="middle" x="80.6102" y="-177.4102" font-family="sans-serif" font-size="14.00" fill="#000000">(array&#45;based)</text>
</g>
<!-- IEnumerable&lt;T&gt;&#45;&gt;stack -->
<g id="edge1" class="edge">
<title>IEnumerable&lt;T&gt;&#45;&gt;stack</title>
<path fill="none" stroke="#000000" d="M222.9549,-252.9198C198.5109,-241.8763 165.8734,-227.1311 138.017,-214.5459"/>
<polygon fill="#000000" stroke="#000000" points="139.3262,-211.2968 128.772,-210.3691 136.4441,-217.676 139.3262,-211.2968"/>
</g>
<!-- queue -->
<g id="node3" class="node">
<title>queue</title>
<ellipse fill="none" stroke="#000000" cx="259.6102" cy="-188.6102" rx="80.7205" ry="26.7407"/>
<text text-anchor="middle" x="259.6102" y="-192.4102" font-family="sans-serif" font-size="14.00" fill="#000000">Queue&lt;T&gt;</text>
<text text-anchor="middle" x="259.6102" y="-177.4102" font-family="sans-serif" font-size="14.00" fill="#000000">(array&#45;based)</text>
</g>
<!-- IEnumerable&lt;T&gt;&#45;&gt;queue -->
<g id="edge2" class="edge">
<title>IEnumerable&lt;T&gt;&#45;&gt;queue</title>
<path fill="none" stroke="#000000" d="M259.6102,-251.1296C259.6102,-243.5597 259.6102,-234.5002 259.6102,-225.6583"/>
<polygon fill="#000000" stroke="#000000" points="263.1103,-225.4808 259.6102,-215.4808 256.1103,-225.4808 263.1103,-225.4808"/>
</g>
<!-- ICollection&lt;T&gt; -->
<g id="node4" class="node">
<title>ICollection&lt;T&gt;</title>
<ellipse fill="none" stroke="#000000" cx="438.6102" cy="-188.6102" rx="80.6858" ry="18"/>
<text text-anchor="middle" x="438.6102" y="-184.9102" font-family="sans-serif" font-size="14.00" fill="#000000">ICollection&lt;T&gt;</text>
</g>
<!-- IEnumerable&lt;T&gt;&#45;&gt;ICollection&lt;T&gt; -->
<g id="edge3" class="edge">
<title>IEnumerable&lt;T&gt;&#45;&gt;ICollection&lt;T&gt;</title>
<path fill="none" stroke="#000000" d="M296.2654,-252.9198C324.3229,-240.2438 363.1753,-222.6907 393.2018,-209.1251"/>
<polygon fill="#000000" stroke="#000000" points="394.9435,-212.1789 402.6156,-204.8721 392.0615,-205.7997 394.9435,-212.1789"/>
</g>
<!-- IList&lt;T&gt; -->
<g id="node5" class="node">
<title>IList&lt;T&gt;</title>
<ellipse fill="none" stroke="#000000" cx="285.6102" cy="-107.7401" rx="51.1914" ry="18"/>
<text text-anchor="middle" x="285.6102" y="-104.0401" font-family="sans-serif" font-size="14.00" fill="#000000">IList&lt;T&gt;</text>
</g>
<!-- ICollection&lt;T&gt;&#45;&gt;IList&lt;T&gt; -->
<g id="edge4" class="edge">
<title>ICollection&lt;T&gt;&#45;&gt;IList&lt;T&gt;</title>
<path fill="none" stroke="#000000" d="M406.9085,-171.8538C382.5865,-158.9981 348.9363,-141.212 323.2474,-127.6337"/>
<polygon fill="#000000" stroke="#000000" points="324.6518,-124.4172 314.1752,-122.8385 321.3806,-130.6059 324.6518,-124.4172"/>
</g>
<!-- ISet&lt;T&gt; -->
<g id="node7" class="node">
<title>ISet&lt;T&gt;</title>
<ellipse fill="none" stroke="#000000" cx="438.6102" cy="-107.7401" rx="50.0912" ry="18"/>
<text text-anchor="middle" x="438.6102" y="-104.0401" font-family="sans-serif" font-size="14.00" fill="#000000">ISet&lt;T&gt;</text>
</g>
<!-- ICollection&lt;T&gt;&#45;&gt;ISet&lt;T&gt; -->
<g id="edge6" class="edge">
<title>ICollection&lt;T&gt;&#45;&gt;ISet&lt;T&gt;</title>
<path fill="none" stroke="#000000" d="M438.6102,-170.2595C438.6102,-160.23 438.6102,-147.5855 438.6102,-136.2966"/>
<polygon fill="#000000" stroke="#000000" points="442.1103,-136.0181 438.6102,-126.0182 435.1103,-136.0182 442.1103,-136.0181"/>
</g>
<!-- IDictionary&lt;K, V&gt; -->
<g id="node10" class="node">
<title>IDictionary&lt;K, V&gt;</title>
<ellipse fill="none" stroke="#000000" cx="790.6102" cy="-107.7401" rx="94.7833" ry="18"/>
<text text-anchor="middle" x="790.6102" y="-104.0401" font-family="sans-serif" font-size="14.00" fill="#000000">IDictionary&lt;K, V&gt;</text>
</g>
<!-- ICollection&lt;T&gt;&#45;&gt;IDictionary&lt;K, V&gt; -->
<g id="edge9" class="edge">
<title>ICollection&lt;T&gt;&#45;&gt;IDictionary&lt;K, V&gt;</title>
<path fill="none" stroke="#000000" d="M495.1651,-175.617C556.3508,-161.5599 654.003,-139.1249 720.1381,-123.9307"/>
<polygon fill="#000000" stroke="#000000" points="721.1024,-127.3004 730.0648,-121.6501 719.535,-120.4781 721.1024,-127.3004"/>
</g>
<!-- list -->
<g id="node6" class="node">
<title>list</title>
<ellipse fill="none" stroke="#000000" cx="140.6102" cy="-26.8701" rx="92.7622" ry="26.7407"/>
<text text-anchor="middle" x="140.6102" y="-30.6701" font-family="sans-serif" font-size="14.00" fill="#000000">List&lt;T&gt;</text>
<text text-anchor="middle" x="140.6102" y="-15.6701" font-family="sans-serif" font-size="14.00" fill="#000000">(dynamic array)</text>
</g>
<!-- IList&lt;T&gt;&#45;&gt;list -->
<g id="edge5" class="edge">
<title>IList&lt;T&gt;&#45;&gt;list</title>
<path fill="none" stroke="#000000" d="M257.9955,-92.3387C239.5075,-82.0275 214.5994,-68.1357 192.4842,-55.8015"/>
<polygon fill="#000000" stroke="#000000" points="193.9648,-52.6197 183.5264,-50.8055 190.5551,-58.7332 193.9648,-52.6197"/>
</g>
<!-- hash_set -->
<g id="node8" class="node">
<title>hash_set</title>
<ellipse fill="none" stroke="#000000" cx="328.6102" cy="-26.8701" rx="77.1494" ry="26.7407"/>
<text text-anchor="middle" x="328.6102" y="-30.6701" font-family="sans-serif" font-size="14.00" fill="#000000">HashSet&lt;T&gt;</text>
<text text-anchor="middle" x="328.6102" y="-15.6701" font-family="sans-serif" font-size="14.00" fill="#000000">(hash table)</text>
</g>
<!-- ISet&lt;T&gt;&#45;&gt;hash_set -->
<g id="edge7" class="edge">
<title>ISet&lt;T&gt;&#45;&gt;hash_set</title>
<path fill="none" stroke="#000000" d="M416.6144,-91.5692C403.2668,-81.7563 385.804,-68.9179 369.9558,-57.2667"/>
<polygon fill="#000000" stroke="#000000" points="371.9759,-54.4077 361.8458,-51.3043 367.8296,-60.0476 371.9759,-54.4077"/>
</g>
<!-- sorted_set -->
<g id="node9" class="node">
<title>sorted_set</title>
<ellipse fill="none" stroke="#000000" cx="548.6102" cy="-26.8701" rx="124.4016" ry="26.7407"/>
<text text-anchor="middle" x="548.6102" y="-30.6701" font-family="sans-serif" font-size="14.00" fill="#000000">SortedSet&lt;T&gt;</text>
<text text-anchor="middle" x="548.6102" y="-15.6701" font-family="sans-serif" font-size="14.00" fill="#000000">(balanced binary tree)</text>
</g>
<!-- ISet&lt;T&gt;&#45;&gt;sorted_set -->
<g id="edge8" class="edge">
<title>ISet&lt;T&gt;&#45;&gt;sorted_set</title>
<path fill="none" stroke="#000000" d="M460.6059,-91.5692C473.3021,-82.2353 489.7215,-70.1639 504.9331,-58.9806"/>
<polygon fill="#000000" stroke="#000000" points="507.2446,-61.6254 513.2284,-52.8821 503.0983,-55.9855 507.2446,-61.6254"/>
</g>
<!-- dictionary -->
<g id="node11" class="node">
<title>dictionary</title>
<ellipse fill="none" stroke="#000000" cx="790.6102" cy="-26.8701" rx="99.9045" ry="26.7407"/>
<text text-anchor="middle" x="790.6102" y="-30.6701" font-family="sans-serif" font-size="14.00" fill="#000000">Dictionary&lt;K, V&gt;</text>
<text text-anchor="middle" x="790.6102" y="-15.6701" font-family="sans-serif" font-size="14.00" fill="#000000">(hash table)</text>
</g>
<!-- IDictionary&lt;K, V&gt;&#45;&gt;dictionary -->
<g id="edge10" class="edge">
<title>IDictionary&lt;K, V&gt;&#45;&gt;dictionary</title>
<path fill="none" stroke="#000000" d="M790.6102,-89.3894C790.6102,-81.8196 790.6102,-72.7601 790.6102,-63.9182"/>
<polygon fill="#000000" stroke="#000000" points="794.1103,-63.7406 790.6102,-53.7407 787.1103,-63.7407 794.1103,-63.7406"/>
</g>
<!-- sorted_dictionary -->
<g id="node12" class="node">
<title>sorted_dictionary</title>
<ellipse fill="none" stroke="#000000" cx="1041.6102" cy="-26.8701" rx="132.8722" ry="26.7407"/>
<text text-anchor="middle" x="1041.6102" y="-30.6701" font-family="sans-serif" font-size="14.00" fill="#000000">SortedDictionary&lt;K, V&gt;</text>
<text text-anchor="middle" x="1041.6102" y="-15.6701" font-family="sans-serif" font-size="14.00" fill="#000000">(balanced binary tree)</text>
</g>
<!-- IDictionary&lt;K, V&gt;&#45;&gt;sorted_dictionary -->
<g id="edge11" class="edge">
<title>IDictionary&lt;K, V&gt;&#45;&gt;sorted_dictionary</title>
<path fill="none" stroke="#000000" d="M839.0055,-92.1476C873.559,-81.0147 920.8442,-65.7798 961.0432,-52.828"/>
<polygon fill="#000000" stroke="#000000" points="962.1197,-56.1585 970.5645,-49.7604 959.973,-49.4957 962.1197,-56.1585"/>
</g>
</g>
</svg>
